# Blender 4.5.3 LTS
# www.blender.org
mtllib debrisSmall.mtl
o Cube.001
v 0.566712 -0.031232 -0.566712
v 0.566712 -0.216980 -0.566712
v 0.566712 -0.031232 0.566712
v 0.566712 -0.216980 0.566712
v -0.566712 -0.031232 -0.566712
v -0.566712 -0.216980 -0.566712
v -0.566712 -0.031232 0.566712
v -0.566712 -0.216980 0.566712
v 0.000000 0.009483 0.815155
v 0.815155 0.009483 0.000000
v -0.815155 0.009483 0.000000
v 0.000000 0.009483 -0.815155
v 0.000000 0.069844 0.000000
vn 0.3255 0.8877 -0.3255
vn 0.1338 -0.9819 -0.1338
vn 0.3255 0.8877 0.3255
vn 0.1338 -0.9819 0.1338
vn -0.3255 0.8877 -0.3255
vn -0.1338 -0.9819 -0.1338
vn -0.3255 0.8877 0.3255
vn -0.1338 -0.9819 0.1338
vn -0.0000 0.9668 0.2556
vn 0.2556 0.9668 -0.0000
vn -0.2556 0.9668 -0.0000
vn -0.0000 0.9668 -0.2556
vn -0.0000 1.0000 -0.0000
vt 0.750000 0.625000
vt 0.875000 0.625000
vt 0.875000 0.750000
vt 0.750000 0.750000
vt 0.375000 0.750000
vt 0.625000 0.750000
vt 0.625000 0.875000
vt 0.625000 1.000000
vt 0.375000 1.000000
vt 0.375000 0.000000
vt 0.625000 0.000000
vt 0.625000 0.125000
vt 0.625000 0.250000
vt 0.375000 0.250000
vt 0.125000 0.500000
vt 0.375000 0.500000
vt 0.125000 0.750000
vt 0.625000 0.500000
vt 0.625000 0.625000
vt 0.625000 0.375000
vt 0.750000 0.500000
vt 0.875000 0.500000
s 1
usemtl Material
f 13/1/13 11/2/11 7/3/7 9/4/9
f 4/5/4 3/6/3 9/7/9 7/8/7 8/9/8
f 8/10/8 7/11/7 11/12/11 5/13/5 6/14/6
f 6/15/6 2/16/2 4/5/4 8/17/8
f 2/16/2 1/18/1 10/19/10 3/6/3 4/5/4
f 6/14/6 5/13/5 12/20/12 1/18/1 2/16/2
f 10/19/10 13/1/13 9/4/9 3/6/3
f 1/18/1 12/21/12 13/1/13 10/19/10
f 12/21/12 5/22/5 11/2/11 13/1/13
